#!OML:ASF F:\twosubjects\two\wednesday\Session 1\rory1.ASF
:FULLY-SPECIFIED
:DEGREES
17
root 4.19717 18.6457 24.9576 -172.609 -0.257785 174.862
lowerback 2.47966 -0.6849 -7.85289
upperback 1.43786 -1.16174 -0.49222
thorax 0.23833 -0.666244 3.91795
lowerneck -12.4372 -2.12702 -2.02959
upperneck 13.447 -2.3934 0.089205
head 6.15038 -1.20877 0.152232
rclavicle -1.27843e-014 -7.40473e-015
rhumerus -27.8715 31.9506 -68.2208
rradius 77.9914
rwrist 0.914472
rhand -1.45796 40.7848
rfingers 7.12502
rthumb 24.1932 12.2908
lclavicle -1.27843e-014 -7.40473e-015
lhumerus -6.5231 -19.8076 90.005
lradius 38.1619
lwrist 1.42887
lhand -24.1836 22.4334
lfingers 7.12502
lthumb 2.30004 52.4008
rfemur -33.9959 4.23481 9.21709
rtibia 51.7048
rfoot -9.34426 -4.9646
rtoes 4.29948
lfemur -10.139 -2.31233 -31.4262
ltibia 24.8672
lfoot -17.0566 1.41185
ltoes -10.1197
18
root 4.19787 18.665 24.811 -173.15 -1.74296 174.681
lowerback 3.23383 -1.03483 -7.97168
upperback 1.73389 -1.70413 -0.412993
thorax 0.196452 -0.952262 4.08952
lowerneck -12.5741 -2.18598 -2.18404
upperneck 13.2005 -2.51945 0.494758
head 6.10403 -1.2506 0.293913
rclavicle 2.00648e-014 2.98177e-015
rhumerus -27.7059 32.0764 -68.1021
rradius 76.9313
rwrist 4.83998
rhand -8.91873 40.8249
rfingers 7.12502
rthumb 17.0247 11.5509
lclavicle 2.00648e-014 2.98177e-015
lhumerus -5.94534 -20.7398 90.022
lradius 39.2832
lwrist 1.97872
lhand -23.8343 21.806
lfingers 7.12502
lthumb 2.63735 51.7694
rfemur -33.0379 3.78 9.04526
rtibia 49.172
rfoot -9.82218 -6.48677
rtoes 4.61574
lfemur -8.57399 -2.83244 -31.439
ltibia 24.2629
lfoot -16.8377 0.974231
ltoes -7.30752
19
root 4.21809 18.678 24.6669 -173.716 -1.81325 174.652
lowerback 3.87174 -0.935603 -8.47325
upperback 2.15938 -1.65492 -0.248992
thorax 0.295118 -0.961123 4.54939
lowerneck -13.2993 -2.22865 -2.38242
upperneck 13.11 -2.59945 0.864125
head 6.20728 -1.27594 0.428278
rclavicle 3.3694e-014 2.20651e-014
rhumerus -26.5984 31.3786 -67.2224
rradius 78.3045
rwrist -0.292368
rhand 3.40172 41.6027
rfingers 7.12502
rthumb 28.8444 13.8123
lclavicle 3.3694e-014 2.20651e-014
lhumerus -4.99686 -21.3435 89.8936
lradius 40.2385
lwrist 2.15671
lhand -23.5143 20.5458
lfingers 7.12502
lthumb 2.94647 50.5052
rfemur -32.3684 4.64968 8.87143
rtibia 46.4845
rfoot -10.0254 -7.97298
rtoes 6.36637
lfemur -7.15172 -2.46962 -31.4458
ltibia 23.656
lfoot -16.6914 1.05189
ltoes -7.5267
20
root 4.23866 18.6858 24.5195 -173.514 -1.28784 174.577
lowerback 3.67884 -0.713837 -9.0582
upperback 2.79477 -1.3635 -0.11865
thorax 1.04356 -0.892743 4.99177
lowerneck -16.1278 -2.26278 -2.38727
upperneck 13.6967 -2.63599 1.00614
head 6.87863 -1.2863 0.43862
rclavicle -9.34288e-015 1.80894e-014
rhumerus -25.0099 31.444 -66.4584
rradius 76.8651
rwrist 4.33129
rhand -4.67098 40.3977
rfingers 7.12502
rthumb 21.1095 11.5268
lclavicle -9.34288e-015 1.80894e-014
lhumerus -3.04028 -22.1172 89.2574
lradius 41.2345
lwrist 2.64264
lhand -23.0308 20.3152
lfingers 7.12502
lthumb 3.41334 50.2677
rfemur -32.6333 5.79926 8.46936
rtibia 43.5981
rfoot -10.0629 -9.2236
rtoes 9.93321
lfemur -6.64164 -1.77698 -31.537
ltibia 23.1364
lfoot -16.6941 1.08297
ltoes -8.88
21
root 4.2155 18.6936 24.384 -172.459 -1.36769 174.504
lowerback 2.64026 -0.899878 -8.76968
upperback 1.89875 -1.47683 -0.202319
thorax 0.701215 -0.872784 4.73456
lowerneck -13.3721 -2.24664 -2.67953
upperneck 12.8018 -2.65401 1.38125
head 6.13377 -1.27967 0.635887
rclavicle 1.92573e-014 7.55382e-015
rhumerus -26.8424 32.5038 -67.4229
rradius 75.7887
rwrist 9.1851
rhand -14.2804 38.6071
rfingers 7.12502
rthumb 11.8588 8.96288
lclavicle 1.92573e-014 7.55382e-015
lhumerus -4.23023 -22.9906 89.6971
lradius 42.3596
lwrist 2.99439
lhand -21.7375 19.8111
lfingers 7.12502
lthumb 4.66224 49.7398
rfemur -33.6871 6.03437 7.89368
rtibia 40.5863
rfoot -9.99874 -10.2294
rtoes 10.5622
lfemur -7.01865 -1.9076 -31.6923
ltibia 22.5483
lfoot -16.2901 1.43873
ltoes -10.4846
22
root 4.19552 18.6928 24.2667 -171.267 -0.0999061 174.746
lowerback 1.5348 -0.524576 -8.4041
upperback 1.24738 -0.858218 -0.310208
thorax 0.546975 -0.518652 4.39956
lowerneck -12.2612 -2.33408 -2.64673
upperneck 12.4667 -2.83175 1.63565
head 5.84648 -1.34487 0.707878
rclavicle -7.70291e-016 6.06293e-015
rhumerus -27.2422 32.0652 -67.5163
rradius 77.2148
rwrist 3.21232
rhand -6.20161 38.9324
rfingers 7.12502
rthumb 19.6385 9.9043
lclavicle -7.70291e-016 6.06293e-015
lhumerus -4.60117 -23.7714 89.8772
lradius 43.1732
lwrist 2.89885
lhand -21.6199 19.189
lfingers 7.12502
lthumb 4.77582 49.1152
rfemur -35.3584 7.11796 7.45833
rtibia 37.4926
rfoot -8.99684 -10.8346
rtoes 9.13973
lfemur -7.72494 -1.54152 -31.7738
ltibia 21.9098
lfoot -16.0389 2.6276
ltoes -11.2014
23
root 4.21186 18.7349 24.0916 -172.099 -1.90046 174.731
lowerback 2.4931 -0.702758 -8.36076
upperback 2.39739 -1.19102 -0.327003
thorax 1.24604 -0.772282 4.36228
lowerneck -15.8336 -2.57581 -1.97097
upperneck 13.2404 -3.27458 1.64476
head 6.69598 -1.51894 0.515241
rclavicle -1.88845e-015 -1.04362e-015
rhumerus -25.3491 30.4336 -66.6562
rradius 76.5882
rwrist 3.15344
rhand -6.69097 39.661
rfingers 7.12502
rthumb 19.168 10.5855
lclavicle -1.88845e-015 -1.04362e-015
lhumerus -2.21972 -24.9872 88.9633
lradius 43.7553
lwrist 2.86418
lhand -22.875 19.1877
lfingers 7.12502
lthumb 3.56377 49.1376
rfemur -33.397 7.31229 7.39151
rtibia 34.3447
rfoot -8.86263 -12.9727
rtoes 8.60632
lfemur -5.58963 -1.88284 -31.3714
ltibia 21.1462
lfoot -15.783 1.63036
ltoes -10.2794
24
root 4.21696 18.761 23.9277 -172.17 -2.58725 174.507
lowerback 2.33918 -0.68138 -8.37635
upperback 1.2451 -1.16267 -0.582619
thorax 0.127236 -0.658942 4.11678
lowerneck -10.1622 -2.67266 -2.00444
upperneck 11.48 -3.6991 2.17462
head 5.19967 -1.79295 0.72393
rclavicle 9.11925e-015 -2.11209e-014
rhumerus -28.885 29.9153 -68.1605
rradius 76.6684
rwrist 2.34576
rhand -4.99969 44.606
rfingers 7.12502
rthumb 20.7937 15.7002
lclavicle 9.11925e-015 -2.11209e-014
lhumerus -5.21517 -26.2522 90.3297
lradius 44.7929
lwrist 2.63798
lhand -23.8628 18.7936
lfingers 7.12502
lthumb 2.60988 48.7574
rfemur -32.6782 7.81824 6.84406
rtibia 31.1975
rfoot -8.73786 -14.3644
rtoes 6.37885
lfemur -4.39408 -2.14017 -31.4435
ltibia 20.2506
lfoot -15.4809 1.27032
ltoes -8.68462
25
root 4.22034 18.7684 23.7687 -171.999 -2.67464 174.186
lowerback 2.16379 -0.949425 -8.85463
upperback 1.71353 -1.50122 -0.459341
thorax 0.774802 -0.880005 4.50613
lowerneck -12.4898 -2.6989 -2.4071
upperneck 12.1537 -3.47517 2.33046
head 5.80871 -1.59669 0.830134
rclavicle -7.59109e-015 2.6339e-015
rhumerus -27.4364 30.9068 -67.6088
rradius 75.8207
rwrist 4.62103
rhand -9.16517 40.9766
rfingers 7.12502
rthumb 16.7874 11.6823
lclavicle -7.59109e-015 2.6339e-015
lhumerus -3.94094 -25.5925 89.8648
lradius 45.5255
lwrist 2.39483
lhand -24.1569 17.923
lfingers 7.12502
lthumb 2.32585 47.89
rfemur -32.4538 8.43963 6.10685
rtibia 28.1677
rfoot -8.42171 -15.2938
rtoes 5.88654
lfemur -3.35299 -2.0323 -31.742
ltibia 18.9615
lfoot -14.8786 1.239
ltoes -8.42367
26
root 4.22403 18.7723 23.6087 -171.973 -2.73873 174.021
lowerback 2.08828 -0.988547 -9.03519
upperback 1.85304 -1.54849 -0.483125
thorax 0.973905 -0.921813 4.5785
lowerneck -13.2417 -2.79165 -2.51428
upperneck 12.4989 -3.6024 2.51515
head 6.05355 -1.64266 0.883867
rclavicle -7.25564e-015 -6.26172e-015
rhumerus -27.4765 31.6547 -67.9052
rradius 73.9614
rwrist 10.8461
rhand -18.4702 39.1076
rfingers 7.12502
rthumb 7.81655 9.27208
lclavicle -7.25564e-015 -6.26172e-015
lhumerus -3.64443 -25.6353 89.8073
lradius 46.3276
lwrist 2.21347
lhand -24.0971 16.5983
lfingers 7.12502
lthumb 2.38356 46.5647
rfemur -32.1291 9.18646 5.52792
rtibia 25.2896
rfoot -8.22993 -16.2253
rtoes 7.25925
lfemur -2.24397 -1.69088 -31.8685
ltibia 17.855
lfoot -14.3858 1.1765
ltoes -9.9225
